/* XPM */
static char *alphabet[] = {
/* width height num_colors chars_per_pixel */
"    72    9        4            1",
/* colors */
". c #303030",
"# c #20b2ae",
"a c #202020",
"c c #107d79",
/* pixels */
"........................................................................",
".c##c..aac.c##c.c##c.caac.c##c.c##c.c##c.c##c.c##c..aa..#....a..........",
".#..#.a..#.a..#.a..#.#..#.#..a.#..a.a..#.#..#.#..#.a..a.c.c....a........",
".#..#.a..#.a..#.a..#.#..#.#..a.#..a.a..#.#..#.#..#.a..a...#....a........",
".caac..aac.c##c.c##c.c##c.c##c.c##c..aac.c##c.c##c..aa...#....a.........",
".#..#.a..#.#..a.a..#.a..#.a..#.#..#.a..#.#..#.a..#.a..a.#....a..........",
".#..#.a..#.#..a.a..#.a..#.a..#.#..#.a..#.#..#.a..#.a..a.c.c..a..........",
".c##c..aac.c##c.c##c..aac.c##c.c##c..aac.c##c.c##c..aa....#....a........",
"........................................................................"
};

