/* XPM */
static char *background[] = {
/* width height num_colors chars_per_pixel */
"    54    54       4            1",
/* colors */
". c #202020",
"c c #303030",
"q c #888c88",
"# c #20b2ae",
/* pixels */
".....................................................q",
".ccccccccccccccccccccccccccccccccccccccccccccccccccccq",
".ccccccccccccccccccccccccccccccccccccccccccccccccccccq",
".ccccccccccccccccccccccccccccccccccccccccccccccccccccq",
".ccccccccccccccccccccccccccccccccccccccccccccccccccccq",
".cc#ccc#c###c#ccc#cccccccccccccccccccccccccccccccccccq",
".cc##c##c#ccc##c##cccccccccccccccccccccccccccccccccccq",
".cc#c#c#c##cc#c#c#cccccccccccccccccccccccccccccccccccq",
".cc#ccc#c#ccc#ccc#cccccccccccccccccccccccccccccccccccq",
".cc#ccc#c###c#ccc#cccccccccccccccccccccccccccccccccccq",
".ccccccccccccccccccccccccccccccccccccccccccccccccccccq",
".ccccccccccccccccccccccccccccccccccccccccccccccccccccq",
".cqqqqqqqqqqqqqqqqqqqqqqqqqqqqqqqqqqqqqqqqqqqqqqqqqqcq",
".cqcccccccccccccccccccccccccccccccccccccccccccccccc.cq",
".cqcccccccccccccccccccccccccccccccccccccccccccccccc.cq",
".cqcccccccccccccccccccccccccccccccccccccccccccccccc.cq",
".cq.................................................cq",
".ccccccccccccccccccccccccccccccccccccccccccccccccccccq",
".ccccccccccccccccccccccccccccccccccccccccccccccccccccq",
".ccccccccccccccccccccccccccccccccccccccccccccccccccccq",
".ccccccccccccccccccccccccccccccccccccccccccccccccccccq",
".ccccccccccccccccccccccccccccccccccccccccccccccccccccq",
".ccccccccccccccccccccccccccccccccccccccccccccccccccccq",
".ccccccccccccccccccccccccccccccccccccccccccccccccccccq",
".ccccccccccccccccccccccccccccccccccccccccccccccccccccq",
".ccccccccccccccccccccccccccccccccccccccccccccccccccccq",
".ccccccccccccccccccccccccccccccccccccccccccccccccccccq",
".ccccccccccccccccccccccccccccccccccccccccccccccccccccq",
".ccccccccccccccccccccccccccccccccccccccccccccccccccccq",
".ccccccccccccccccccccccccccccccccccccccccccccccccccccq",
".ccc##c#ccc#cc#cc###cccccccccccccccccccccccccccccccccq",
".cc#ccc#ccc#c#c#c#cc#ccccccccccccccccccccccccccccccccq",
".ccc#cc#c#c#c###c###cccccccccccccccccccccccccccccccccq",
".cccc#c##c##c#c#c#cccccccccccccccccccccccccccccccccccq",
".cc##cc#ccc#c#c#c#cccccccccccccccccccccccccccccccccccq",
".ccccccccccccccccccccccccccccccccccccccccccccccccccccq",
".ccccccccccccccccccccccccccccccccccccccccccccccccccccq",
".cqqqqqqqqqqqqqqqqqqqqqqqqqqqqqqqqqqqqqqqqqqqqqqqqqqcq",
".cqcccccccccccccccccccccccccccccccccccccccccccccccc.cq",
".cqcccccccccccccccccccccccccccccccccccccccccccccccc.cq",
".cqcccccccccccccccccccccccccccccccccccccccccccccccc.cq",
".cq.................................................cq",
".ccccccccccccccccccccccccccccccccccccccccccccccccccccq",
".ccccccccccccccccccccccccccccccccccccccccccccccccccccq",
".ccccccccccccccccccccccccccccccccccccccccccccccccccccq",
".ccccccccccccccccccccccccccccccccccccccccccccccccccccq",
".ccccccccccccccccccccccccccccccccccccccccccccccccccccq",
".ccccccccccccccccccccccccccccccccccccccccccccccccccccq",
".ccccccccccccccccccccccccccccccccccccccccccccccccccccq",
".ccccccccccccccccccccccccccccccccccccccccccccccccccccq",
".ccccccccccccccccccccccccccccccccccccccccccccccccccccq",
".ccccccccccccccccccccccccccccccccccccccccccccccccccccq",
".ccccccccccccccccccccccccccccccccccccccccccccccccccccq",
"qqqqqqqqqqqqqqqqqqqqqqqqqqqqqqqqqqqqqqqqqqqqqqqqqqqqqq",
};

